<mxfile host="app.diagrams.net" modified="2021-09-26T14:32:32.956Z" agent="5.0 (Windows NT 10.0; Win64; x64) AppleWebKit/537.36 (KHTML, like Gecko) Chrome/93.0.4577.82 Safari/537.36" etag="qCVlUSuPjuZ5koSfRd5M" version="15.1.4" type="github">
  <diagram id="8_wBA-8raf1EeJHgD3st" name="Page-1">
    <mxGraphModel dx="2155" dy="802" grid="1" gridSize="10" guides="1" tooltips="1" connect="1" arrows="1" fold="1" page="1" pageScale="1" pageWidth="827" pageHeight="1169" math="0" shadow="0">
      <root>
        <mxCell id="0" />
        <mxCell id="1" parent="0" />
        <mxCell id="gJQaFK3K2TU47vyFPmJI-11" value="" style="rounded=1;whiteSpace=wrap;html=1;fillColor=#f5f5f5;strokeColor=#666666;fontColor=#333333;" vertex="1" parent="1">
          <mxGeometry x="-70" y="240" width="640" height="100" as="geometry" />
        </mxCell>
        <mxCell id="gJQaFK3K2TU47vyFPmJI-12" value="" style="edgeStyle=orthogonalEdgeStyle;rounded=0;orthogonalLoop=1;jettySize=auto;html=1;" edge="1" parent="1" source="gJQaFK3K2TU47vyFPmJI-13" target="gJQaFK3K2TU47vyFPmJI-15">
          <mxGeometry relative="1" as="geometry" />
        </mxCell>
        <mxCell id="gJQaFK3K2TU47vyFPmJI-13" value="head msg" style="rounded=1;whiteSpace=wrap;html=1;fillColor=#dae8fc;strokeColor=#6c8ebf;opacity=40;" vertex="1" parent="1">
          <mxGeometry x="110" y="260" width="120" height="60" as="geometry" />
        </mxCell>
        <mxCell id="gJQaFK3K2TU47vyFPmJI-14" value="" style="edgeStyle=orthogonalEdgeStyle;rounded=0;orthogonalLoop=1;jettySize=auto;html=1;" edge="1" parent="1" source="gJQaFK3K2TU47vyFPmJI-15" target="gJQaFK3K2TU47vyFPmJI-17">
          <mxGeometry relative="1" as="geometry" />
        </mxCell>
        <mxCell id="gJQaFK3K2TU47vyFPmJI-15" value="msg 2" style="rounded=1;whiteSpace=wrap;html=1;fillColor=#dae8fc;strokeColor=#6c8ebf;" vertex="1" parent="1">
          <mxGeometry x="260" y="260" width="120" height="60" as="geometry" />
        </mxCell>
        <mxCell id="gJQaFK3K2TU47vyFPmJI-17" value="..." style="rounded=1;whiteSpace=wrap;html=1;fillColor=#dae8fc;strokeColor=#6c8ebf;" vertex="1" parent="1">
          <mxGeometry x="414" y="260" width="120" height="60" as="geometry" />
        </mxCell>
        <mxCell id="gJQaFK3K2TU47vyFPmJI-21" value="" style="edgeStyle=orthogonalEdgeStyle;rounded=0;orthogonalLoop=1;jettySize=auto;html=1;dashed=1;" edge="1" parent="1" source="gJQaFK3K2TU47vyFPmJI-18" target="gJQaFK3K2TU47vyFPmJI-13">
          <mxGeometry relative="1" as="geometry" />
        </mxCell>
        <mxCell id="gJQaFK3K2TU47vyFPmJI-18" value="&lt;font color=&quot;#ea6b66&quot;&gt;new head&lt;br&gt;msg&lt;/font&gt;" style="rounded=1;whiteSpace=wrap;html=1;opacity=20;" vertex="1" parent="1">
          <mxGeometry x="-40" y="260" width="120" height="60" as="geometry" />
        </mxCell>
        <mxCell id="gJQaFK3K2TU47vyFPmJI-19" value="" style="edgeStyle=orthogonalEdgeStyle;rounded=0;orthogonalLoop=1;jettySize=auto;html=1;fillColor=#f8cecc;strokeColor=#b85450;" edge="1" parent="1" source="gJQaFK3K2TU47vyFPmJI-20" target="gJQaFK3K2TU47vyFPmJI-18">
          <mxGeometry relative="1" as="geometry" />
        </mxCell>
        <mxCell id="gJQaFK3K2TU47vyFPmJI-20" value="front queue&lt;br&gt;msg" style="rounded=1;whiteSpace=wrap;html=1;fillColor=#d5e8d4;strokeColor=#82b366;" vertex="1" parent="1">
          <mxGeometry x="-40" y="140" width="120" height="60" as="geometry" />
        </mxCell>
      </root>
    </mxGraphModel>
  </diagram>
</mxfile>
